<svg width="70" height="70" viewBox="0 0 70 70" fill="none" xmlns="http://www.w3.org/2000/svg">
<path fill-rule="evenodd" clip-rule="evenodd" d="M21.7728 3.10925C25.194 2.95175 26.2848 2.91675 34.9998 2.91675C43.7148 2.91675 44.8057 2.95466 48.224 3.10925C51.6423 3.26383 53.9757 3.80925 56.0173 4.59966C58.1552 5.40758 60.0948 6.6705 61.699 8.30383C63.3323 9.90508 64.5923 11.8417 65.3973 13.9826C66.1907 16.0242 66.7332 18.3576 66.8907 21.7701C67.0482 25.1972 67.0832 26.288 67.0832 35.0001C67.0832 43.7151 67.0453 44.8059 66.8907 48.2272C66.7361 51.6397 66.1907 53.973 65.3973 56.0147C64.5923 58.1558 63.3302 60.0957 61.699 61.6992C60.0948 63.3326 58.1552 64.5926 56.0173 65.3976C53.9757 66.1909 51.6423 66.7334 48.2298 66.8909C44.8057 67.0484 43.7148 67.0834 34.9998 67.0834C26.2848 67.0834 25.194 67.0455 21.7728 66.8909C18.3603 66.7363 16.0269 66.1909 13.9853 65.3976C11.8442 64.5925 9.90431 63.3304 8.30067 61.6992C6.66845 60.097 5.40534 58.1581 4.59942 56.0176C3.809 53.9759 3.2665 51.6426 3.109 48.2301C2.9515 44.803 2.9165 43.7122 2.9165 35.0001C2.9165 26.2851 2.95442 25.1942 3.109 21.7759C3.26359 18.3576 3.809 16.0242 4.59942 13.9826C5.40653 11.842 6.6706 9.90308 8.30359 8.30091C9.90495 6.66904 11.8429 5.40596 13.9823 4.59966C16.024 3.80925 18.3573 3.26675 21.7698 3.10925H21.7728ZM47.9644 8.88425C44.5811 8.72966 43.5661 8.69758 34.9998 8.69758C26.4336 8.69758 25.4186 8.72966 22.0353 8.88425C18.9057 9.02716 17.2082 9.54925 16.0765 9.98966C14.5803 10.573 13.5098 11.2642 12.3869 12.3872C11.3225 13.4227 10.5033 14.6834 9.98942 16.0767C9.549 17.2084 9.02692 18.9059 8.884 22.0355C8.72942 25.4188 8.69734 26.4338 8.69734 35.0001C8.69734 43.5663 8.72942 44.5813 8.884 47.9647C9.02692 51.0942 9.549 52.7917 9.98942 53.9234C10.5028 55.3147 11.3223 56.5776 12.3869 57.613C13.4223 58.6776 14.6853 59.4972 16.0765 60.0105C17.2082 60.4509 18.9057 60.973 22.0353 61.1159C25.4186 61.2705 26.4307 61.3026 34.9998 61.3026C43.569 61.3026 44.5811 61.2705 47.9644 61.1159C51.094 60.973 52.7915 60.4509 53.9232 60.0105C55.4194 59.4272 56.4898 58.7359 57.6128 57.613C58.6773 56.5776 59.4969 55.3147 60.0103 53.9234C60.4507 52.7917 60.9728 51.0942 61.1157 47.9647C61.2703 44.5813 61.3023 43.5663 61.3023 35.0001C61.3023 26.4338 61.2703 25.4188 61.1157 22.0355C60.9728 18.9059 60.4507 17.2084 60.0103 16.0767C59.4269 14.5805 58.7357 13.5101 57.6128 12.3872C56.5771 11.3228 55.3165 10.5036 53.9232 9.98966C52.7915 9.54925 51.094 9.02716 47.9644 8.88425V8.88425ZM30.9019 44.8905C33.1905 45.8432 35.7389 45.9717 38.1117 45.2543C40.4846 44.5368 42.5347 43.0178 43.912 40.9566C45.2893 38.8955 45.9083 36.4201 45.6633 33.9533C45.4183 31.4865 44.3244 29.1813 42.5686 27.4313C41.4493 26.3127 40.0959 25.4562 38.6058 24.9234C37.1157 24.3907 35.5261 24.1949 33.9513 24.3502C32.3765 24.5055 30.8557 25.0081 29.4984 25.8217C28.1412 26.6353 26.9812 27.7398 26.102 29.0555C25.2228 30.3712 24.6462 31.8655 24.4138 33.4308C24.1815 34.9961 24.299 36.5934 24.7581 38.1078C25.2171 39.6222 26.0062 41.016 27.0686 42.1889C28.131 43.3617 29.4402 44.2844 30.9019 44.8905ZM23.339 23.3392C24.8703 21.8079 26.6883 20.5932 28.689 19.7645C30.6898 18.9357 32.8342 18.5092 34.9998 18.5092C37.1655 18.5092 39.3099 18.9357 41.3106 19.7645C43.3114 20.5932 45.1293 21.8079 46.6607 23.3392C48.192 24.8706 49.4067 26.6885 50.2354 28.6893C51.0642 30.6901 51.4907 32.8345 51.4907 35.0001C51.4907 37.1657 51.0642 39.3101 50.2354 41.3109C49.4067 43.3116 48.192 45.1296 46.6607 46.6609C43.568 49.7536 39.3735 51.491 34.9998 51.491C30.6262 51.491 26.4316 49.7536 23.339 46.6609C20.2464 43.5683 18.5089 39.3737 18.5089 35.0001C18.5089 30.6264 20.2464 26.4319 23.339 23.3392V23.3392ZM55.1482 20.9651C55.5276 20.6071 55.8314 20.1766 56.0416 19.6992C56.2517 19.2217 56.3639 18.7069 56.3715 18.1853C56.3791 17.6637 56.2819 17.1458 56.0858 16.6624C55.8897 16.179 55.5986 15.7399 55.2297 15.371C54.8608 15.0022 54.4217 14.711 53.9383 14.5149C53.4549 14.3188 52.9371 14.2217 52.4155 14.2293C51.8938 14.2369 51.3791 14.3491 50.9016 14.5592C50.4241 14.7693 49.9936 15.0731 49.6357 15.4526C48.9395 16.1906 48.5583 17.1709 48.5731 18.1853C48.5879 19.1997 48.9975 20.1685 49.7149 20.8859C50.4323 21.6033 51.401 22.0128 52.4155 22.0276C53.4299 22.0424 54.4102 21.6613 55.1482 20.9651V20.9651Z" fill="black"/>
</svg>
