<svg width="1440" height="45" viewBox="0 0 1440 45" fill="none" xmlns="http://www.w3.org/2000/svg">
<path fill-rule="evenodd" clip-rule="evenodd" d="M-6 11.315L43.7333 13.1358C93.4667 15.0867 192.933 18.7283 292.4 17.8179C391.867 16.9075 491.333 11.315 590.8 8.45376C690.267 5.72255 789.733 5.72255 889.2 6.63295C988.667 7.54335 1088.13 9.36417 1187.6 8.45376C1287.07 7.54335 1386.53 3.77168 1436.27 1.95087L1486 0V45H1436.27C1386.53 45 1287.07 45 1187.6 45C1088.13 45 988.667 45 889.2 45C789.733 45 690.267 45 590.8 45C491.333 45 391.867 45 292.4 45C192.933 45 93.4667 45 43.7333 45H-6V11.315Z" fill="white"/>
</svg>
