<svg width="128" height="128" viewBox="0 0 128 128" fill="none" xmlns="http://www.w3.org/2000/svg">
<path d="M112.021 42.5333V32C112.021 20.2346 102.453 10.6666 90.6881 10.6666H37.3547C25.5894 10.6666 16.0214 20.2346 16.0214 32V42.656L15.6161 42.6773C14.271 42.7744 13.0127 43.3774 12.0944 44.365C11.176 45.3526 10.6659 46.6514 10.6667 48V58.6666C10.6667 60.0811 11.2287 61.4377 12.2288 62.4379C13.229 63.4381 14.5856 64 16.0001 64H16.0214V96C16.0214 99.92 18.1707 103.317 21.3334 105.173V112C21.3334 113.414 21.8953 114.771 22.8955 115.771C23.8957 116.771 25.2523 117.333 26.6667 117.333H32.0001C33.4146 117.333 34.7711 116.771 35.7713 115.771C36.7715 114.771 37.3334 113.414 37.3334 112V106.667H90.6668V112C90.6668 113.414 91.2286 114.771 92.2288 115.771C93.229 116.771 94.5856 117.333 96.0001 117.333H101.333C102.748 117.333 104.104 116.771 105.105 115.771C106.105 114.771 106.667 113.414 106.667 112V105.195C108.288 104.267 109.637 102.929 110.577 101.315C111.517 99.701 112.015 97.8678 112.021 96V64C113.436 64 114.792 63.4381 115.793 62.4379C116.793 61.4377 117.355 60.0811 117.355 58.6666V48.3306C117.416 47.5029 117.285 46.6723 116.971 45.904C115.888 43.3066 113.584 42.6826 112.021 42.5333ZM101.365 96H26.6881V69.3333H101.36L101.365 96ZM58.6881 37.3333V58.6666H26.6881V37.3333H58.6881ZM101.355 37.3333V58.6666H69.3547V37.3333H101.355ZM37.3547 21.3333H90.6881C94.6134 21.3333 98.0214 23.4933 99.8721 26.6666H28.1708C30.0214 23.4933 33.4294 21.3333 37.3547 21.3333V21.3333Z" fill="black"/>
<path d="M40 90.6666C44.4183 90.6666 48 87.0849 48 82.6666C48 78.2483 44.4183 74.6666 40 74.6666C35.5817 74.6666 32 78.2483 32 82.6666C32 87.0849 35.5817 90.6666 40 90.6666Z" fill="black"/>
<path d="M88 90.6666C92.4183 90.6666 96 87.0849 96 82.6666C96 78.2483 92.4183 74.6666 88 74.6666C83.5817 74.6666 80 78.2483 80 82.6666C80 87.0849 83.5817 90.6666 88 90.6666Z" fill="black"/>
</svg>
