<svg width="70" height="70" viewBox="0 0 70 70" fill="none" xmlns="http://www.w3.org/2000/svg">
<path d="M70 35C70 15.6647 54.3222 0 35 0C15.6647 0 0 15.6647 0 35C0 52.465 12.7947 66.9462 29.5312 69.5691V45.1194H20.6434V35.0022H29.5312V27.2869C29.5312 18.5172 34.7484 13.6741 42.7459 13.6741C46.5763 13.6741 50.5859 14.3566 50.5859 14.3566V22.9688H46.165C41.825 22.9688 40.4688 25.6703 40.4688 28.4375V35H50.1747L48.615 45.1172H40.4688V69.5669C57.1922 66.9441 70 52.4628 70 34.9978V35Z" fill="black"/>
</svg>
