<svg width="128" height="128" viewBox="0 0 128 128" fill="none" xmlns="http://www.w3.org/2000/svg">
<path d="M28 76V52H38V44H10V52H20V76H28Z" fill="black"/>
<path d="M83.3706 76L88.9999 67.3395L94.6291 76H104.171L93.7706 60L104.171 44H94.6291L88.9999 52.6605L83.3706 44H73.8291L84.2291 60L73.8291 76H83.3706Z" fill="black"/>
<path d="M110 44H118V76H110V44Z" fill="black"/>
<path d="M10 26H118V34H10V26Z" fill="black"/>
<path d="M10 86H118V94H10V86Z" fill="black"/>
<path d="M60.3344 70L62.3344 76H70.7672L60.1002 44H48.6122L38.7524 76H47.1234L48.9734 70H60.3344ZM54.4302 52.2865L57.6679 62H51.4372L54.4302 52.2865Z" fill="black"/>
</svg>
