<svg width="33" height="33" viewBox="0 0 33 33" fill="none" xmlns="http://www.w3.org/2000/svg">
<path d="M18.4387 16.5003L24.3512 10.6015C24.6101 10.3426 24.7555 9.99142 24.7555 9.62526C24.7555 9.25909 24.6101 8.90792 24.3512 8.649C24.0922 8.39009 23.7411 8.24463 23.3749 8.24463C23.0088 8.24463 22.6576 8.39009 22.3987 8.649L16.4999 14.5615L10.6012 8.649C10.3422 8.39009 9.99108 8.24463 9.62492 8.24463C9.25875 8.24463 8.90758 8.39009 8.64867 8.649C8.38975 8.90792 8.24429 9.25909 8.24429 9.62526C8.24429 9.99142 8.38975 10.3426 8.64867 10.6015L14.5612 16.5003L8.64867 22.399C8.51979 22.5268 8.4175 22.6789 8.34769 22.8465C8.27788 23.014 8.24194 23.1937 8.24194 23.3753C8.24194 23.5568 8.27788 23.7365 8.34769 23.904C8.4175 24.0716 8.51979 24.2237 8.64867 24.3515C8.77649 24.4804 8.92857 24.5827 9.09612 24.6525C9.26368 24.7223 9.4434 24.7582 9.62492 24.7582C9.80643 24.7582 9.98615 24.7223 10.1537 24.6525C10.3213 24.5827 10.4733 24.4804 10.6012 24.3515L16.4999 18.439L22.3987 24.3515C22.5265 24.4804 22.6786 24.5827 22.8461 24.6525C23.0137 24.7223 23.1934 24.7582 23.3749 24.7582C23.5564 24.7582 23.7362 24.7223 23.9037 24.6525C24.0713 24.5827 24.2233 24.4804 24.3512 24.3515C24.48 24.2237 24.5823 24.0716 24.6521 23.904C24.7219 23.7365 24.7579 23.5568 24.7579 23.3753C24.7579 23.1937 24.7219 23.014 24.6521 22.8465C24.5823 22.6789 24.48 22.5268 24.3512 22.399L18.4387 16.5003Z" fill="white"/>
</svg>
