<svg width="1440" height="97" viewBox="0 0 1440 97" fill="none" xmlns="http://www.w3.org/2000/svg">
<path fill-rule="evenodd" clip-rule="evenodd" d="M-29 24.3902L20.7333 28.315C70.4667 32.5202 169.933 40.3699 269.4 38.4075C368.867 36.4451 468.333 24.3902 567.8 18.2225C667.267 12.3353 766.733 12.3353 866.2 14.2977C965.667 16.2601 1065.13 20.185 1164.6 18.2225C1264.07 16.2601 1363.53 8.13007 1413.27 4.20521L1463 0V97H1413.27C1363.53 97 1264.07 97 1164.6 97C1065.13 97 965.667 97 866.2 97C766.733 97 667.267 97 567.8 97C468.333 97 368.867 97 269.4 97C169.933 97 70.4667 97 20.7333 97H-29V24.3902Z" fill="white"/>
</svg>
