<?xml version="1.0" encoding="UTF-8"?>
<svg width="3901px" height="75px" viewBox="0 0 3901 75" version="1.1" xmlns="http://www.w3.org/2000/svg" xmlns:xlink="http://www.w3.org/1999/xlink">
    <!-- Generator: Sketch 47.1 (45422) - http://www.bohemiancoding.com/sketch -->
    <title>Page 1</title>
    <desc>Created with Sketch.</desc>
    <defs></defs>
    <g id="Welcome" stroke="none" stroke-width="1" fill="none" fill-rule="evenodd">
        <path d="M0,62.71422 C135.014,29.71122 245.615,40.81922 333.033,56.71322 C399.04,68.71422 444.044,74.71522 474.047,71.71522 C504.05,68.71422 537.054,65.71422 630.063,71.71522 C723.072,77.71522 831.083,41.71222 876.088,41.71222 C921.092,41.71222 927.093,32.71122 1075.855,48.94922 C1208.262,63.40322 1334.349,77.87122 1430.398,68.23022 C1526.447,58.59022 1635.976,48.94922 1744.191,48.94922 C1852.407,48.94922 1973.609,87.51122 2083.731,68.23022 C2193.854,48.94922 2301.1,22.73422 2380.31,19.87922 C2433.117,17.97622 2512.299,26.93422 2617.855,46.75422 C2745.275,65.71422 2811.281,53.71322 2871.288,38.71222 C2931.293,23.71022 2979.298,11.70922 3033.303,8.70922 C3087.309,5.70822 3144.315,14.70922 3180.318,17.70922 C3216.322,20.71022 3261.327,17.70922 3333.333,5.70822 C3405.34,-6.29278 3531.353,5.70822 3630.363,29.71122 C3729.544,53.75522 3822.382,32.71122 3900.39,14.70922" id="Page-1" stroke="#EDECEC"></path>
    </g>
</svg>