<svg width="1440" height="59" viewBox="0 0 1440 59" fill="none" xmlns="http://www.w3.org/2000/svg">
<path fill-rule="evenodd" clip-rule="evenodd" d="M-6 44.1647L42.2 41.7775C90.4 39.2197 186.8 34.4451 283.2 35.6387C379.6 36.8324 476 44.1647 572.4 47.9162C668.8 51.4971 765.2 51.4971 861.6 50.3035C958 49.1098 1054.4 46.7225 1150.8 47.9162C1247.2 49.1098 1343.6 54.0549 1391.8 56.4422L1440 59V0H1391.8C1343.6 0 1247.2 0 1150.8 0C1054.4 0 958 0 861.6 0C765.2 0 668.8 0 572.4 0C476 0 379.6 0 283.2 0C186.8 0 90.4 0 42.2 0H-6V44.1647Z" fill="white"/>
</svg>
