<svg width="1440" height="59" viewBox="0 0 1440 59" fill="none" xmlns="http://www.w3.org/2000/svg">
<path fill-rule="evenodd" clip-rule="evenodd" d="M-6 14.8353L42.2 17.2225C90.4 19.7803 186.8 24.5549 283.2 23.3613C379.6 22.1676 476 14.8353 572.4 11.0838C668.8 7.50289 765.2 7.50289 861.6 8.69653C958 9.89017 1054.4 12.2775 1150.8 11.0838C1247.2 9.89017 1343.6 4.94509 1391.8 2.5578L1440 2.98023e-08V59H1391.8C1343.6 59 1247.2 59 1150.8 59C1054.4 59 958 59 861.6 59C765.2 59 668.8 59 572.4 59C476 59 379.6 59 283.2 59C186.8 59 90.4 59 42.2 59H-6V14.8353Z" fill="white"/>
</svg>
