<svg width="33" height="34" viewBox="0 0 33 34" fill="none" xmlns="http://www.w3.org/2000/svg">
<path d="M33 31.2455C33 32.567 32.2641 33.6361 31.3582 33.6361H18.1417C17.7063 33.6361 17.2887 33.3843 16.9809 32.9359C16.673 32.4876 16.5 31.8796 16.5 31.2455C16.5 30.6115 16.673 30.0035 16.9809 29.5552C17.2887 29.1068 17.7063 28.855 18.1417 28.855H31.3582C32.2657 28.855 33 29.9241 33 31.2455Z" fill="#1B3B46"/>
<path d="M32.9999 16.8178C32.9999 18.1392 32.264 19.2084 31.3582 19.2084H1.64175C1.20633 19.2084 0.788744 18.9565 0.480857 18.5082C0.172969 18.0599 0 17.4518 0 16.8178C0 16.1838 0.172969 15.5757 0.480857 15.1274C0.788744 14.6791 1.20633 14.4272 1.64175 14.4272H31.3582C32.2657 14.4272 32.9999 15.4988 32.9999 16.8178Z" fill="#1B3B46"/>
<path d="M31.3584 4.78115C31.7938 4.78115 32.2114 4.52929 32.5193 4.08097C32.8272 3.63265 33.0001 3.0246 33.0001 2.39058C33.0001 1.75656 32.8272 1.1485 32.5193 0.700183C32.2114 0.251863 31.7938 1.88953e-08 31.3584 0H11.5419C11.3263 -9.35599e-09 11.1128 0.0618341 10.9136 0.181972C10.7144 0.302109 10.5335 0.478197 10.381 0.700183C10.2286 0.922168 10.1076 1.1857 10.0251 1.47574C9.94261 1.76578 9.90015 2.07664 9.90015 2.39058C9.90015 2.70451 9.94261 3.01537 10.0251 3.30541C10.1076 3.59545 10.2286 3.85898 10.381 4.08097C10.5335 4.30295 10.7144 4.47904 10.9136 4.59918C11.1128 4.71932 11.3263 4.78115 11.5419 4.78115H31.3584Z" fill="#1B3B46"/>
</svg>
