<svg width="128" height="128" viewBox="0 0 128 128" fill="none" xmlns="http://www.w3.org/2000/svg">
<path d="M47.5 88H80.5C81.05 88 81.5 87.55 81.5 87V76.5C81.5 75.95 81.05 75.5 80.5 75.5H75.5C74.95 75.5 74.5 75.95 74.5 76.5V81H53.5V76.5C53.5 75.95 53.05 75.5 52.5 75.5H47.5C46.95 75.5 46.5 75.95 46.5 76.5V87C46.5 87.55 46.95 88 47.5 88ZM90 72.625C90 73.9511 90.5268 75.2229 91.4645 76.1606C92.4022 77.0982 93.6739 77.625 95 77.625C96.3261 77.625 97.5979 77.0982 98.5356 76.1606C99.4732 75.2229 100 73.9511 100 72.625C100 71.2989 99.4732 70.0272 98.5356 69.0895C97.5979 68.1518 96.3261 67.625 95 67.625C93.6739 67.625 92.4022 68.1518 91.4645 69.0895C90.5268 70.0272 90 71.2989 90 72.625ZM119.875 51.675L116.913 46.5C116.779 46.2719 116.561 46.1057 116.306 46.0378C116.051 45.9699 115.779 46.0057 115.55 46.1375L109.213 49.8375L99.425 22.8125C98.9083 21.1999 97.8924 19.7933 96.5241 18.7957C95.1558 17.7982 93.5059 17.2612 91.8125 17.2625H37.65C33.3125 17.2625 29.4625 20.0625 28.125 24.2L18.8 49.85L12.45 46.15C12.2211 46.0182 11.9493 45.9824 11.694 46.0503C11.4387 46.1182 11.2207 46.2844 11.0875 46.5125L8.12502 51.675C7.85002 52.15 8.01252 52.75 8.48752 53.025L16.0375 57.425L14.225 62.425C14.075 62.825 14 63.25 14 63.675V107.2C14 109.163 15.475 110.75 17.2875 110.75H25.7375C27.275 110.75 28.6125 109.588 28.9375 107.963L29.9 103.25H98.1L99.0625 107.963C99.4 109.588 100.725 110.75 102.263 110.75H110.713C112.525 110.75 114 109.163 114 107.2V63.675C114 63.25 113.925 62.825 113.775 62.425L111.963 57.425L119.5 53.025C119.727 52.894 119.893 52.6791 119.963 52.4267C120.034 52.1742 120.002 51.9043 119.875 51.675V51.675ZM105 64.625V94.25H23V64.625L24.95 59.25H103.05L105 64.625ZM36.5875 27.2625L36.65 27.1L36.7 26.9375C36.8375 26.525 37.2125 26.25 37.65 26.25H91.1L100.525 52.25H27.5L36.5875 27.2625ZM28 72.625C28 73.9511 28.5268 75.2229 29.4645 76.1606C30.4022 77.0982 31.6739 77.625 33 77.625C34.3261 77.625 35.5979 77.0982 36.5356 76.1606C37.4732 75.2229 38 73.9511 38 72.625C38 71.2989 37.4732 70.0272 36.5356 69.0895C35.5979 68.1518 34.3261 67.625 33 67.625C31.6739 67.625 30.4022 68.1518 29.4645 69.0895C28.5268 70.0272 28 71.2989 28 72.625Z" fill="black"/>
</svg>
